<svg viewBox="0 0 128 128" xmlns="http://www.w3.org/2000/svg"><defs></defs><path d="M 63.432 5 L 80.171 14.771 L 29.468 44.181 L 12.729 34.476 L 63.432 5 Z M 68.795 27.799 L 85.631 18.028 L 114.135 34.736 L 97.169 44.181 L 68.795 27.799 L 68.795 27.799 Z" fill="#3b3b3b" style="fill:#3b3b3b"></path><path d="M 12.729 34.476 L 12.729 93.524 L 63.432 123 L 63.432 103.523 L 29.565 83.754 L 29.468 44.181 L 12.729 34.476 Z" fill="#2e2e2e" style="fill:#2e2e2e"></path><path d="M 114.135 93.264 L 63.432 123 L 63.432 103.523 L 97.234 83.819 L 97.169 44.181 L 114.135 34.736 L 114.135 93.264 L 114.135 93.264 Z" fill="#333" style="fill:#333"></path><path d="M 97.169 44.181 L 63.432 63.235 L 63.432 73.396 L 76.595 65.84 L 76.595 95.869 L 85.111 90.886 L 85.111 60.792 L 97.169 53.692 L 97.169 44.181 Z" fill="#89c236" style="fill:#89c236"></path><path d="M 29.468 44.181 L 29.565 83.754 L 38.926 89.29 L 38.926 77.077 L 53.097 85.219 L 53.097 97.465 L 63.465 103.523 L 63.465 63.235 L 29.468 44.181 Z M 53.032 76.816 L 39.056 68.739 L 39.056 59.522 L 53.032 67.338 L 53.032 76.816 Z" fill="#7baf31" style="fill:#7baf31"></path></svg>